<svg xmlns="http://www.w3.org/2000/svg" width="1920" height="1260" viewBox="0 0 1920 1260">
  <defs>
    <style>
      .cls-1 {
        fill-rule: evenodd;
      }
    </style>
  </defs>
  <path id="Color_Fill_1" data-name="Color Fill 1" class="cls-1" d="M0,0H1920V800l-57-3-41,2-22-3-48,6c57.56-91.224-43.19-180.907-132-122-0.19-27.284,2.3-43.788-7-66l-161-12c-15.53-2.361-30.05,4.74-42,3-34.17-4.975-85.77-7.559-123-1l-26-2c-23.48-3.557-53.43-.728-72,3l-42-1c-32.15,0-62.93,2.539-85,9-13.26,3.881-19.05.209-27,8q-1.5,34.5-3,69c6.05,35.162,11.81,73.409,12,113h-2c-6.17,2.84-16.99,2-26,2l-34,1c-18.085-5.063-37.408-16.008-61-19-12.078-1.532-44.168,10.347-60,13l-83,3-27-13c-18.462-4.187-59.847,8.864-77,12l-130,1-61-4-33-6c-21.744,3.308-51.815,14.356-79,10-25.105-4.022-55.179-6-85-6H231c-38.253-5.84-87.295-3.572-122,2l-36-3L0,807V0ZM1673,697c44.71,6.234,69.74,34.261,49,74-4.27,8.181-11.93,21.248-20,25-20.08,9.33-46.09-2.3-68,1l-33,3v-1c10.64-32.036,23.89-33.9,36-56q1.995-9.5,4-19C1647.51,710.612,1661.33,705.505,1673,697Z"/>
</svg>
